<?xml version="1.0" standalone="no"?>
<!DOCTYPE svg PUBLIC "-//W3C//DTD SVG 1.1//EN" "http://www.w3.org/Graphics/SVG/1.1/DTD/svg11.dtd" >
<svg xmlns="http://www.w3.org/2000/svg">
<metadata></metadata>
<defs>
<font id="thesanscdsemibold" horiz-adv-x="901" >
<font-face units-per-em="2048" ascent="1516" descent="-532" />
<missing-glyph horiz-adv-x="358" />
<glyph unicode="&#xfb01;" horiz-adv-x="964" d="M2 856v162h143v65q0 199 104.5 308.5t309.5 109.5q59 0 127 -10t127 -27l-39 -170q-49 16 -107.5 27.5t-105.5 11.5q-113 0 -163 -62.5t-50 -172.5v-80h502v-1018h-203v856h-299v-856h-203v856h-143z" />
<glyph unicode="&#xfb02;" horiz-adv-x="964" d="M2 856v162h143v102q0 180 94.5 280.5t305.5 100.5q74 0 153.5 -8t151.5 -20v-1473h-203v1319q-29 8 -58.5 11t-58.5 3q-92 0 -137 -50t-45 -165v-100h182v-162h-182v-856h-203v856h-143z" />
<glyph horiz-adv-x="2048" />
<glyph horiz-adv-x="2048" />
<glyph unicode="&#xd;" horiz-adv-x="358" />
<glyph unicode=" "  horiz-adv-x="358" />
<glyph unicode="&#x09;" horiz-adv-x="358" />
<glyph unicode="&#xa0;" horiz-adv-x="358" />
<glyph unicode="!" horiz-adv-x="503" d="M143 113q0 53 38 91t91 38t91 -38t38 -91q0 -55 -37.5 -92t-91.5 -37q-53 0 -91 36.5t-38 92.5zM154 1450h237l-33 -1090h-174z" />
<glyph unicode="&#x22;" horiz-adv-x="657" d="M74 1491h205l-29 -485h-150zM379 1491h203l-27 -485h-149z" />
<glyph unicode="#" horiz-adv-x="1048" d="M41 369v153h180l29 365h-170v153h182l29 342h178l-29 -342h219l27 342h178l-26 -342h163v-153h-176l-28 -365h166v-153h-179l-28 -369h-178l28 369h-219l-29 -369h-178l29 369h-168zM399 522h219l29 365h-219z" />
<glyph unicode="$" d="M74 1022q0 117 68.5 207t197.5 125v178h152v-160q53 -2 108 -11t113 -30l-43 -172q-43 23 -92.5 33t-96.5 10q-96 0 -144 -46t-48 -122q0 -43 16.5 -75.5t45 -60.5t64.5 -51.5t77 -47.5q51 -33 104 -68t96 -82t71 -108.5t28 -147.5q0 -131 -77 -228t-222 -130v-215h-152 v200q-61 2 -129 14.5t-129 37.5l47 186q53 -29 116.5 -44t110.5 -15q106 0 161.5 49t55.5 129q0 49 -19 86t-52 67.5t-75 57t-87 53.5q-49 31 -96 64.5t-85 77.5t-61.5 102.5t-23.5 136.5z" />
<glyph unicode="%" horiz-adv-x="1308" d="M61 1040q0 160 72 259.5t199 99.5q256 0 256 -338q0 -160 -72 -258t-201 -98q-123 0 -188.5 81.5t-65.5 253.5zM145 31l885 1407l131 -86l-885 -1405zM213 1055q0 -119 27.5 -170t85.5 -51q57 0 83.5 57t26.5 158q0 117 -26.5 168t-83.5 51t-85 -57.5t-28 -155.5z M719 322q0 160 71.5 259t198.5 99q256 0 256 -340q0 -160 -71.5 -258t-200.5 -98q-123 0 -188.5 83t-65.5 255zM870 334q0 -117 28 -168t85 -51t85 57t28 158q0 117 -28 168t-85 51t-85 -57.5t-28 -157.5z" />
<glyph unicode="&#x26;" horiz-adv-x="1304" d="M80 373q0 74 18.5 134t48 112.5t68.5 96.5t82 85q-84 115 -123 208t-39 175q0 63 22.5 121.5t65.5 103.5t105.5 70.5t140.5 25.5q141 0 223 -79.5t82 -204.5q0 -72 -18.5 -129.5t-49 -107.5t-70.5 -93t-83 -82q66 -82 148.5 -172t179.5 -186q47 92 71.5 212.5t18.5 262.5 h200q2 -178 -35.5 -331t-109.5 -276q51 -47 105.5 -98t113.5 -102l-131 -162q-53 47 -107.5 97t-109.5 104q-86 -86 -193.5 -132t-232.5 -46q-98 0 -172 30.5t-122 85t-72.5 126t-24.5 151.5zM291 401q0 -113 57.5 -178t161.5 -65q70 0 135.5 32t118.5 91q-98 96 -187.5 193 t-164.5 192q-49 -55 -85 -118t-36 -147zM338 1198q0 -100 106 -264q53 57 91 118.5t38 141.5q0 66 -29.5 107.5t-88.5 41.5q-51 0 -84 -39.5t-33 -105.5z" />
<glyph unicode="'" horiz-adv-x="350" d="M74 1491h205l-29 -485h-150z" />
<glyph unicode="(" horiz-adv-x="536" d="M96 582q0 229 52.5 484t181.5 525l164 -57q-98 -211 -149.5 -449.5t-51.5 -492.5q0 -268 52 -501.5t153 -452.5l-170 -58q-129 274 -180.5 521t-51.5 481z" />
<glyph unicode=")" horiz-adv-x="536" d="M37 1534l170 57q129 -274 181 -522t52 -479q0 -229 -53 -485.5t-182 -524.5l-162 55q98 211 149.5 450t51.5 495q0 268 -53.5 501.5t-153.5 452.5z" />
<glyph unicode="*" horiz-adv-x="700" d="M51 1268l76 131l176 -133l-27 225h144l-25 -225l180 133l74 -129l-207 -90l207 -90l-74 -132l-180 136l27 -228h-146l27 228l-178 -136l-72 129l205 91z" />
<glyph unicode="+" d="M41 537v172h319v350h181v-350h319v-172h-319v-353h-181v353h-319z" />
<glyph unicode="," horiz-adv-x="417" d="M39 -248q86 109 97 180.5t-27 120.5q-25 29 -28 64t10 65.5t43 51t73 20.5q57 0 96 -48t38 -128t-50 -184.5t-166 -217.5z" />
<glyph unicode="-" horiz-adv-x="442" d="M49 539v168h367v-168h-367z" />
<glyph unicode="." horiz-adv-x="417" d="M76 117q0 55 39 95t94 40t94 -40t39 -95t-39 -94t-94 -39t-94 38.5t-39 94.5z" />
<glyph unicode="/" d="M127 -330l446 1880h193l-447 -1880h-192z" />
<glyph unicode="0" horiz-adv-x="997" d="M68 686q0 156 27.5 288t82.5 226t138 147.5t196 53.5q94 0 171 -38t132 -121t86 -215t31 -320q0 -168 -30 -303.5t-87 -229.5t-139 -144t-189 -50q-203 0 -311 169.5t-108 536.5zM270 707q0 -289 60.5 -420t171.5 -131q98 0 161.5 124t63.5 398q0 281 -62.5 416 t-168.5 135q-98 0 -162 -127t-64 -395z" />
<glyph unicode="1" horiz-adv-x="649" d="M16 1151l324 231h172v-1382h-211v1157l-221 -170z" />
<glyph unicode="2" horiz-adv-x="845" d="M47 1253q66 68 153 108t191 40q90 0 156.5 -29t109.5 -80t64.5 -119.5t21.5 -150.5q0 -68 -14 -134.5t-46 -139t-81 -151.5t-119 -171l-178 -242l-2 -2q53 2 137 3t176 1h170v-186h-725v166l228 311q72 98 118 174t71.5 137.5t34.5 110.5t9 96q0 111 -46 168.5t-128 57.5 q-66 0 -119 -32t-94 -77z" />
<glyph unicode="3" horiz-adv-x="835" d="M31 25l53 176q102 -45 211 -45q121 0 187.5 65.5t66.5 181.5q0 106 -67.5 172t-196.5 66q-41 0 -74 -1t-68 -3v168h70q141 0 220 56.5t79 174.5q0 39 -10 75t-33 62.5t-58.5 43t-88.5 16.5q-109 0 -209 -72l-58 158q59 35 130 58.5t167 23.5q98 0 170 -26.5t117 -72 t66.5 -105.5t21.5 -128q0 -115 -52 -195.5t-145 -119.5l-2 -2q51 -10 96.5 -39t78 -72t51 -98.5t18.5 -114.5q0 -98 -33.5 -180t-98.5 -141.5t-156 -93t-205 -33.5q-129 0 -248 45z" />
<glyph unicode="4" horiz-adv-x="917" d="M27 498l399 884h311v-878h160v-180h-160v-324h-205v324h-499zM209 502q33 0 78 1t92 1h90h68v713z" />
<glyph unicode="5" horiz-adv-x="837" d="M55 10l37 185q47 -18 95.5 -29.5t111.5 -11.5q125 0 191.5 70.5t66.5 197.5q0 141 -67.5 204.5t-204.5 63.5q-47 0 -90 -4t-82 -10v706h598v-186h-408v-340q14 0 32.5 1t41.5 1q102 0 177 -30.5t124 -84t73.5 -127t24.5 -161.5q0 -109 -37 -197t-103.5 -149.5t-158.5 -95 t-205 -33.5q-57 0 -110 8t-107 22z" />
<glyph unicode="6" horiz-adv-x="937" d="M76 557q0 221 42 381t118.5 262.5t184 151.5t236.5 49q29 0 64 -2t57 -6l-20 -172q-23 4 -49.5 7t-61.5 3q-80 0 -139 -31t-101 -86t-70 -131t-44 -164q-8 -35 -12.5 -58.5t-8.5 -51.5q33 70 99.5 107.5t158.5 37.5q82 0 146.5 -29.5t109.5 -83t69 -127t24 -161.5 q0 -109 -31 -196t-85 -148.5t-129 -95t-163 -33.5q-190 0 -292.5 144t-102.5 433zM291 451q0 -131 46 -216t142 -85q98 0 145.5 76.5t47.5 201.5q0 121 -46 190.5t-143 69.5q-47 0 -82.5 -21.5t-60.5 -55t-37 -76.5t-12 -84z" />
<glyph unicode="7" horiz-adv-x="811" d="M35 1192v190h747v-165q-115 -289 -215 -600.5t-164 -616.5h-229q74 313 175.5 617.5t211.5 578.5q-25 -2 -85 -3t-146 -1h-295z" />
<glyph unicode="8" horiz-adv-x="917" d="M59 326q0 68 18.5 122t50.5 99t74 82t87 71q-41 27 -78 60t-64.5 75t-44 93t-16.5 119q0 74 25.5 138t75 112.5t120 76t160.5 27.5q92 0 159.5 -24.5t113.5 -67.5t68.5 -101.5t22.5 -128.5q0 -61 -17 -111t-47 -93.5t-69 -80t-82 -69.5q47 -29 91.5 -62.5t78 -77.5 t54 -99.5t20.5 -129.5q0 -88 -31.5 -157.5t-87 -118.5t-130 -74.5t-160.5 -25.5q-98 0 -171 26.5t-122 72.5t-74 109.5t-25 137.5zM266 338q0 -90 51.5 -144.5t145.5 -54.5q80 0 135 51.5t55 141.5q0 51 -17.5 91t-46 72.5t-66.5 59t-79 51.5q-72 -53 -125 -115.5 t-53 -152.5zM289 1063q0 -45 13 -81t36.5 -64.5t55.5 -54t67 -48.5q68 51 118 108.5t50 139.5q0 86 -43 133t-127 47q-80 0 -125 -51t-45 -129z" />
<glyph unicode="9" horiz-adv-x="937" d="M55 926q0 111 31 198.5t85 149t129 94.5t165 33q193 0 293 -143.5t100 -436.5q0 -227 -37 -388t-109.5 -261t-178 -146t-242.5 -46q-41 0 -91 7t-96 17l29 174q47 -16 96.5 -23.5t85.5 -7.5q150 0 225.5 97.5t104.5 310.5q4 35 8 60.5t9 48.5h-3q-35 -68 -99 -106 t-157 -38q-82 0 -146 30t-109.5 84t-69 128t-23.5 164zM262 950q0 -127 46 -193.5t138 -66.5q49 0 86 20.5t61.5 54.5t37 77t12.5 88q0 133 -46 217t-142 84t-144.5 -79t-48.5 -202z" />
<glyph unicode=":" horiz-adv-x="481" d="M139 117q0 55 39 95t96 40q55 0 94.5 -40t39.5 -95t-39 -94t-95 -39q-57 0 -96 38.5t-39 94.5zM139 731q0 55 39 95t96 40q55 0 94.5 -40t39.5 -95t-39 -95t-95 -40q-57 0 -96 40t-39 95z" />
<glyph unicode=";" horiz-adv-x="481" d="M100 -248q88 109 99.5 180.5t-29.5 120.5q-23 29 -27 64t10.5 65.5t43 51t71.5 20.5q57 0 96 -48t38 -128t-49 -184.5t-165 -217.5zM139 731q0 55 39 95t96 40q55 0 94.5 -40t39.5 -95t-39 -95t-95 -40q-57 0 -96 40t-39 95z" />
<glyph unicode="&#x3c;" d="M74 618l577 586l133 -131l-458 -452l462 -453l-137 -133z" />
<glyph unicode="=" d="M86 356v168h729v-168h-729zM86 723v168h729v-168h-729z" />
<glyph unicode="&#x3e;" d="M113 1069l137 135l577 -586l-577 -583l-133 131l458 450z" />
<glyph unicode="?" horiz-adv-x="710" d="M98 1276l25 186q135 -8 234.5 -43t165 -90t97 -124.5t31.5 -147.5q0 -80 -24.5 -135.5t-60.5 -101.5t-75.5 -88t-68.5 -93t-39 -117.5t12 -161.5h-194q-29 98 -23 172t32 131.5t63.5 102.5t73.5 87t60.5 85t24.5 98q0 98 -87 164t-247 76zM172 113q0 53 38 91t91 38 q55 0 92 -38t37 -91q0 -55 -37 -92t-92 -37q-53 0 -91 36.5t-38 92.5z" />
<glyph unicode="@" horiz-adv-x="1492" d="M84 551q0 186 56.5 353t156.5 291t237.5 196.5t299.5 72.5q147 0 256.5 -52t182.5 -141t108.5 -208t35.5 -254q0 -141 -30.5 -246.5t-84 -174.5t-127 -103.5t-159.5 -34.5q-94 0 -136 60.5t-36 144.5h-2q-12 -37 -36 -74t-55.5 -65.5t-70.5 -47t-82 -18.5 q-84 0 -128 70.5t-44 205.5q0 113 24.5 210.5t73.5 169t124 112.5t177 41q53 0 110.5 -7.5t111.5 -17.5l-58 -401q-16 -119 0.5 -168t67.5 -49q76 0 128 92t52 278q0 104 -22.5 198.5t-71.5 167.5t-129 115t-195 42q-127 0 -228.5 -60.5t-174 -162t-111.5 -234.5t-39 -279 q0 -276 119 -436t358 -160q156 0 295 52l33 -154q-68 -27 -164 -42t-192 -15q-154 0 -271.5 52t-197.5 148.5t-121 231.5t-41 301zM606 563q0 -78 11.5 -112.5t37.5 -34.5q55 0 105.5 104.5t77.5 288.5l12 94q-29 12 -76 12q-45 0 -76.5 -35.5t-52 -90t-30 -116t-9.5 -110.5 z" />
<glyph unicode="A" horiz-adv-x="1019" d="M6 0l356 1382h293l359 -1382h-221l-78 307h-426l-78 -307h-205zM326 479h350l-133 529q-12 47 -22.5 94t-18.5 94h-2q-6 -45 -16.5 -91t-20.5 -93z" />
<glyph unicode="B" horiz-adv-x="946" d="M117 0v1382q70 2 155.5 4.5t178.5 2.5q209 0 304 -92.5t95 -262.5q0 -94 -45 -174t-139 -125v-2q57 -16 98 -47t66.5 -72t37 -90t11.5 -102q0 -86 -25 -163t-79 -136.5t-140 -94t-209 -34.5q-49 0 -128 2t-181 4zM322 174q23 -4 52 -6t66 -2q113 0 166 68t53 174 q0 111 -59 167t-186 56h-43t-49 -2v-455zM322 797q27 -2 49 -2h41q109 0 166 59.5t57 165.5q0 90 -46 144.5t-157 54.5h-52.5t-57.5 -2v-420z" />
<glyph unicode="C" horiz-adv-x="876" d="M61 664q0 162 31 297t93.5 232t159.5 151.5t230 54.5q68 0 134.5 -14.5t119.5 -36.5l-47 -183q-90 45 -198 45q-80 0 -136.5 -40t-92.5 -110.5t-52 -166.5t-16 -209q0 -246 70.5 -379t224.5 -133q61 0 114.5 15.5t96.5 39.5l49 -178q-59 -31 -132 -49t-165 -18 q-131 0 -222.5 46t-149.5 134t-85 215t-27 287z" />
<glyph unicode="D" horiz-adv-x="1087" d="M117 0v1382q63 0 156.5 3.5t191.5 3.5q125 0 228.5 -36t177 -117t113.5 -210t40 -315q0 -190 -43 -325.5t-123 -222.5t-190.5 -128t-245.5 -41q-86 0 -161 2t-144 4zM322 182q25 -4 59.5 -7t64.5 -3q80 0 146.5 28.5t114 91t73 163t25.5 243.5q0 258 -79 387t-263 129 q-41 0 -78 -1t-63 -5v-1026z" />
<glyph unicode="E" horiz-adv-x="802" d="M117 0v1382h598v-176h-393v-407h370v-170h-370v-451h395v-178h-600z" />
<glyph unicode="F" horiz-adv-x="761" d="M117 0v1382h588v-176h-383v-418h362v-170h-362v-618h-205z" />
<glyph unicode="G" horiz-adv-x="1099" d="M57 664q0 160 37 295t112 233t188.5 153.5t264.5 55.5q178 0 332 -68l-61 -188q-63 33 -132 52.5t-147 19.5q-96 0 -166.5 -39t-116.5 -109t-69 -169t-23 -218q0 -246 92.5 -382t264.5 -136q78 0 147 26v515h207v-644q-82 -41 -179 -61t-200 -20q-264 0 -407.5 176 t-143.5 508z" />
<glyph unicode="H" horiz-adv-x="1142" d="M117 0v1382h205v-575h497v575h207v-1382h-207v627h-497v-627h-205z" />
<glyph unicode="I" horiz-adv-x="440" d="M117 0v1382h205v-1382h-205z" />
<glyph unicode="J" horiz-adv-x="530" d="M2 0v170q23 -4 46.5 -6t41.5 -2q31 0 53.5 8t37 30.5t20.5 61.5t6 98v1022h207v-1001q0 -90 -14.5 -163t-48.5 -123t-90 -77.5t-140 -27.5q-29 0 -59.5 3t-59.5 7z" />
<glyph unicode="K" horiz-adv-x="954" d="M117 0v1382h205v-645l368 645h236l-398 -669l410 -713h-250l-366 678v-678h-205z" />
<glyph unicode="L" horiz-adv-x="700" d="M117 0v1382h205v-1200h364v-182h-569z" />
<glyph unicode="M" horiz-adv-x="1466" d="M74 0l119 1382h296l189 -829q12 -66 24.5 -138.5t22.5 -148.5h2q10 76 23.5 147.5t29.5 149.5l191 819h293l129 -1382h-207l-70 793q-10 115 -17 197.5t-12 162.5h-2q-23 -152 -53 -297l-196 -856h-232l-186 811q-18 86 -33.5 171t-26.5 171h-4q-4 -92 -8 -190.5 t-10 -190.5l-64 -772h-198z" />
<glyph unicode="N" horiz-adv-x="1128" d="M117 0v1382h286l349 -841q18 -45 38.5 -106.5t43.5 -127.5q-4 72 -5.5 161t-2.5 184.5t-1 188.5v173v368h187v-1382h-273l-358 883q-23 55 -44.5 115.5t-41.5 125.5q2 -53 4 -131t3 -166t1 -179v-167v-481h-186z" />
<glyph unicode="O" horiz-adv-x="1153" d="M59 680q0 156 33 288t99.5 228t167 150.5t235.5 54.5q131 0 225 -49t155.5 -140.5t90.5 -220t29 -286.5q0 -160 -34 -294.5t-101.5 -229.5t-168 -148t-233.5 -53q-127 0 -221 49t-155.5 139t-91.5 220t-30 292zM276 696q0 -530 297 -530q154 0 229 138t75 386 q0 268 -76 397.5t-223 129.5q-145 0 -223.5 -134.5t-78.5 -386.5z" />
<glyph unicode="P" horiz-adv-x="872" d="M117 0v1382q63 4 141 5.5t162 1.5q203 0 306 -111.5t103 -304.5q0 -102 -31.5 -187.5t-90 -144.5t-138.5 -92t-174 -33q-18 0 -36.5 1t-36.5 3v-520h-205zM322 696q18 -4 38.5 -6t40.5 -2q100 0 157.5 71.5t57.5 198.5q0 125 -49 193t-157 68h-40t-48 -2v-521z" />
<glyph unicode="Q" horiz-adv-x="1153" d="M59 680q0 156 33 288t99.5 228t167 150.5t235.5 54.5q131 0 225 -49t155.5 -140.5t90.5 -220t29 -286.5q0 -160 -34 -294.5t-101.5 -229.5t-168 -148t-233.5 -53q-127 0 -221 49t-155.5 139t-91.5 220t-30 292zM276 696q0 -530 297 -530q154 0 229 138t75 386 q0 268 -76 397.5t-223 129.5q-145 0 -223.5 -134.5t-78.5 -386.5zM500 -135q50 7 94 7q49 0 89 -8q77 -16 146.5 -37.5t144.5 -36.5q34 -7 74 -7q47 0 103 10v-176q-63 -12 -115 -12q-11 0 -22 1q-60 3 -111 14t-97 26.5t-94 28t-100 17.5q-17 2 -35 2q-36 0 -77 -7v178z " />
<glyph unicode="R" horiz-adv-x="903" d="M117 0v1382q129 6 299 7q199 0 305 -92.5t106 -288.5q0 -74 -21.5 -136.5t-59 -109.5t-88 -79t-105.5 -44q23 -37 43 -77t39 -77l248 -485h-240l-289 606h-32v-606h-205zM322 770q12 -2 32.5 -3t44.5 -1q100 0 156.5 62.5t56.5 166.5q0 117 -51 170.5t-153 53.5 q-23 0 -43.5 -1t-42.5 -4v-444z" />
<glyph unicode="S" horiz-adv-x="823" d="M63 1030q0 78 27 145.5t78 117.5t127 79t172 29q55 0 113.5 -8.5t113.5 -24.5l-45 -178q-90 37 -180 37q-96 0 -142 -52.5t-46 -132.5q0 -72 35.5 -118.5t89 -85.5t116 -77t115.5 -88t89 -120t36 -174q0 -82 -28.5 -154.5t-84 -126t-135.5 -85t-182 -31.5q-143 0 -264 45 l47 194q49 -27 107.5 -41t105.5 -14q109 0 162 54t53 140q0 74 -36 123t-89 88t-114.5 77t-115 87t-89.5 120t-36 175z" />
<glyph unicode="T" horiz-adv-x="837" d="M27 1204v178h784v-178h-289v-1204h-207v1204h-288z" />
<glyph unicode="U" horiz-adv-x="1114" d="M115 467v915h204v-897q0 -162 54.5 -246.5t189.5 -84.5q127 0 179.5 78.5t52.5 240.5v909h204v-890q0 -119 -25.5 -214.5t-78.5 -161t-138 -101t-202 -35.5q-125 0 -210 35.5t-136 100t-72.5 153.5t-21.5 198z" />
<glyph unicode="V" horiz-adv-x="1026" d="M6 1382h223l228 -911q6 -31 15 -66.5t18.5 -72.5t16.5 -73t13 -64h2q12 68 29.5 141.5t36.5 146.5l221 899h207l-357 -1382h-290z" />
<glyph unicode="W" horiz-adv-x="1595" d="M39 1382h215l162 -890q16 -88 24.5 -157t18.5 -136h2q6 61 13 120.5t18 120.5l167 942h291l168 -921q10 -59 19.5 -126t15.5 -136h2q10 88 22.5 166.5t22.5 142.5l150 874h209l-256 -1382h-306l-161 899q-12 76 -23.5 155t-17.5 138q-6 -59 -18.5 -140t-22.5 -159 l-160 -893h-295z" />
<glyph unicode="X" horiz-adv-x="1005" d="M16 0l351 711l-324 671h238l223 -495l219 495h231l-323 -667l354 -715h-256l-235 530l-234 -530h-244z" />
<glyph unicode="Y" horiz-adv-x="905" d="M4 1382h225l160 -452q23 -57 41.5 -117.5t28.5 -105.5h2q14 53 34.5 115.5t36.5 109.5l154 450h217l-346 -897v-485h-205v483z" />
<glyph unicode="Z" horiz-adv-x="882" d="M66 0v158l505 1040q-41 -2 -90 -3t-110 -1h-289v188h727v-161l-510 -1033q49 4 110.5 4.5t133.5 0.5h276v-193h-753z" />
<glyph unicode="[" horiz-adv-x="534" d="M121 -410v1993h356v-166h-168v-1659h168v-168h-356z" />
<glyph unicode="\" d="M127 1550h192l447 -1880h-193z" />
<glyph unicode="]" horiz-adv-x="534" d="M59 -242h166v1659h-166v166h355v-1993h-355v168z" />
<glyph unicode="^" d="M68 768l305 614h155l312 -612l-154 -65l-237 505l-240 -505z" />
<glyph unicode="_" d="M0 -334h901v-164h-901v164z" />
<glyph unicode="`" horiz-adv-x="540" d="M84 1384l121 127l270 -256l-92 -96z" />
<glyph unicode="a" horiz-adv-x="847" d="M53 258q0 168 125 260q120 88 335 88h19v78q0 90 -35.5 141.5t-127.5 51.5q-55 0 -115.5 -19.5t-101.5 -48.5l-58 147q61 35 138 58.5t163 23.5q182 0 261 -89t79 -242v-422v-144.5t4 -140.5h-184q0 47 2 94t8 80l-2 2q-27 -86 -96.5 -140t-167.5 -54q-111 0 -178.5 69.5 t-67.5 206.5zM250 279q0 -137 102 -138q39 0 73 24.5t57.5 64.5t36.5 92.5t13 105.5v39h-21q-70 1 -117 -11q-54 -14 -87 -40.5t-45 -61.5t-12 -75z" />
<glyph unicode="b" horiz-adv-x="917" d="M115 25v1466h202v-475q0 -45 -4 -92t-10 -88l2 -2q31 92 96.5 148t163.5 56q141 0 218 -120.5t77 -364.5q0 -274 -111.5 -418.5t-334.5 -144.5q-88 0 -161 8t-138 27zM317 176q43 -22 109 -22h6q51 0 92 20.5t69 65.5t42 118t14 177q0 158 -33.5 242.5t-105.5 84.5 q-45 0 -81 -35.5t-60.5 -91t-38 -125t-13.5 -137.5v-297z" />
<glyph unicode="c" horiz-adv-x="702" d="M57 473q0 262 105.5 411.5t306.5 149.5q53 0 103.5 -9t95.5 -26l-54 -172q-63 33 -147 33q-98 0 -148.5 -94t-50.5 -266q0 -72 9.5 -133.5t32 -107.5t59.5 -71.5t94 -25.5q86 0 158 45l51 -166q-104 -55 -244 -55q-84 0 -151.5 25.5t-116.5 83t-76 150.5t-27 228z" />
<glyph unicode="d" horiz-adv-x="917" d="M57 465q0 274 112 417.5t325 143.5q47 0 106 -6v471h203v-1491h-189q0 41 2 95.5t11 105.5l-2 2q-37 -106 -104.5 -164.5t-166.5 -58.5q-141 0 -219 120.5t-78 364.5zM268 483q0 -158 33 -242.5t107 -84.5q45 0 80.5 35.5t60 91t38 125t13.5 137.5v299q-29 10 -58.5 15 t-56.5 5q-51 0 -92 -20.5t-68.5 -65.5t-42 -117.5t-14.5 -177.5z" />
<glyph unicode="e" horiz-adv-x="847" d="M57 502q0 111 22.5 208t70 169.5t121 115.5t175.5 43q86 0 151 -32.5t105.5 -90t61 -136.5t20.5 -173v-51.5t-4 -60.5h-514v-27q0 -174 57.5 -250t168.5 -76q68 0 121 16.5t110 45.5l51 -150q-72 -35 -150.5 -54t-164.5 -19q-199 0 -300.5 123.5t-101.5 398.5zM270 639 h314q0 117 -35 180.5t-113 63.5t-117.5 -66.5t-48.5 -177.5z" />
<glyph unicode="f" horiz-adv-x="555" d="M2 856v162h143v106q0 184 77 280.5t237 96.5q76 0 149 -22l-41 -160q-37 14 -88 14q-72 0 -101.5 -50t-29.5 -148v-117h189v-162h-189v-856h-203v856h-143z" />
<glyph unicode="g" horiz-adv-x="897" d="M51 -207q0 84 38 147.5t97 106.5q-43 25 -63.5 66t-20.5 90q0 55 27 100t72 74q-59 39 -92 110.5t-33 169.5q0 76 23.5 144.5t68.5 121t112.5 84t157.5 31.5q41 0 73 -5t67 -15h272v-162h-117q23 -31 36 -73t13 -97q0 -82 -23.5 -149.5t-68.5 -116.5t-112.5 -76 t-153.5 -27q-20 0 -41 2.5t-37 8.5q-41 -31 -41 -74q0 -41 28.5 -55.5t96.5 -20.5l131 -10q143 -10 222 -84t79 -215q0 -84 -32.5 -152.5t-91 -118t-139.5 -77t-179 -27.5q-170 0 -269.5 78t-99.5 221zM252 -170q0 -86 54 -130t140 -44q102 0 160 51t58 139q0 72 -44.5 107 t-115.5 39l-117 8q-23 2 -32 2t-17 2q-39 -29 -62.5 -73t-23.5 -101zM268 674q0 -213 160 -213q78 0 120 53.5t42 157.5q0 217 -156 217q-78 0 -122 -58.5t-44 -156.5z" />
<glyph unicode="h" horiz-adv-x="933" d="M115 0v1491h202v-451q0 -53 -3 -105t-11 -101q31 88 100.5 146t169.5 58q70 0 118 -24.5t77 -68.5t41 -103.5t12 -128.5v-713h-200v672q0 94 -24 142t-83 48q-47 0 -84 -34.5t-61.5 -89t-38 -119t-13.5 -125.5v-494h-202z" />
<glyph unicode="i" horiz-adv-x="432" d="M88 1315q0 53 38 90t91 37t89 -37t36 -90t-37 -90t-90 -37t-90 37t-37 90zM115 0v1018h202v-1018h-202z" />
<glyph unicode="j" horiz-adv-x="430" d="M-119 -485l33 170q16 -8 38.5 -13.5t47.5 -5.5q66 0 90.5 47t24.5 168v1137h202v-1124q0 -193 -68.5 -296.5t-246.5 -103.5q-29 0 -61.5 5t-59.5 16zM88 1315q0 53 38 90t91 37t89 -37t36 -90t-37 -90t-90 -37t-90 37t-37 90z" />
<glyph unicode="k" horiz-adv-x="823" d="M115 0v1491h202v-916l244 443h227l-276 -459l301 -559h-238l-258 520v-520h-202z" />
<glyph unicode="l" horiz-adv-x="432" d="M115 0v1491h202v-1491h-202z" />
<glyph unicode="m" horiz-adv-x="1429" d="M115 0v1018h188q0 -45 -2 -100.5t-8 -96.5h2q35 98 103.5 157.5t172.5 59.5q109 0 165.5 -60t60.5 -159q27 94 98.5 156.5t175.5 62.5q70 0 118 -24.5t76.5 -68.5t41 -103.5t12.5 -128.5v-713h-203v672q0 94 -22.5 142t-81.5 48q-47 0 -83 -34.5t-60.5 -88t-38 -118 t-13.5 -123.5v-498h-203v666q0 98 -20.5 147t-83.5 49q-47 0 -83 -34.5t-60.5 -89t-37 -120t-12.5 -124.5v-494h-202z" />
<glyph unicode="n" horiz-adv-x="933" d="M115 0v1018h188q0 -45 -2 -101.5t-10 -99.5l2 -2q35 102 106.5 162.5t173.5 60.5q70 0 118 -24.5t77 -68.5t41 -103.5t12 -128.5v-713h-200v672q0 94 -24 142t-83 48q-47 0 -84 -34.5t-61.5 -89t-38 -119t-13.5 -125.5v-494h-202z" />
<glyph unicode="o" horiz-adv-x="905" d="M57 500q0 115 26 213t77 170.5t126.5 113.5t176.5 41q201 0 293 -137t92 -381q0 -119 -25.5 -218t-77 -171t-127 -111.5t-176.5 -39.5q-201 0 -293 136t-92 384zM264 520q0 -188 47 -280.5t150 -92.5q86 0 132 88.5t46 264.5q0 186 -46 278t-147 92q-88 0 -135 -87 t-47 -263z" />
<glyph unicode="p" horiz-adv-x="917" d="M115 -492v1510h188q0 -49 -3 -102.5t-9 -100.5l2 -2q35 106 103.5 165.5t168.5 59.5q141 0 218 -120.5t77 -364.5q0 -274 -112.5 -417.5t-325.5 -143.5q-29 0 -52.5 2t-52.5 8v-494h-202zM317 176q49 -22 110 -22h5q51 0 92 20.5t69 65.5t42 118t14 177 q0 158 -33.5 242.5t-105.5 84.5q-45 0 -81 -35.5t-60.5 -91t-38 -125t-13.5 -137.5v-297z" />
<glyph unicode="q" horiz-adv-x="917" d="M57 465q0 274 112 418.5t335 144.5q78 0 155.5 -8t143.5 -25v-1487h-203v486q0 45 4 95t10 93l-2 2q-31 -92 -96 -148t-164 -56q-141 0 -218 120.5t-77 364.5zM268 483q0 -158 33 -242.5t107 -84.5q45 0 80.5 35.5t60 91t38 125t13.5 137.5v301q-53 18 -117 18 q-51 0 -91 -20.5t-67.5 -65.5t-42 -117.5t-14.5 -177.5z" />
<glyph unicode="r" horiz-adv-x="591" d="M115 0v1018h186q0 -45 -3 -106.5t-11 -114.5h2q16 53 39.5 100t58.5 80t81 49q31 11 67 10q18 0 38 -2l-12 -205q-23 5 -45 5q-86 0 -136 -86q-64 -108 -63 -336v-412h-202z" />
<glyph unicode="s" horiz-adv-x="684" d="M66 745q0 129 85 210t248 81q47 0 90 -5t82 -15l-34 -166q-29 10 -64 18.5t-67 8.5q-63 0 -96.5 -34t-33.5 -83q0 -47 26 -79t65 -58.5t85 -53t84.5 -63.5t64.5 -88t26 -127q0 -70 -26 -127.5t-73 -98t-113.5 -63t-146.5 -22.5q-47 0 -99 6t-99 22l34 172q78 -33 158 -33 q78 0 114 37t36 92q0 51 -26 85t-64.5 62t-82.5 53.5t-83 60t-64.5 84t-25.5 124.5z" />
<glyph unicode="t" horiz-adv-x="600" d="M2 856v162h143v321l203 56v-377h201v-162h-201v-514q0 -106 21.5 -145t74.5 -39q45 0 99 16l20 -162q-39 -12 -88 -19t-86 -7q-139 0 -191.5 73.5t-52.5 239.5v557h-143z" />
<glyph unicode="u" horiz-adv-x="933" d="M111 305v713h202v-672q0 -94 23.5 -142t83.5 -48q45 0 82 34.5t62.5 89t38.5 119t13 125.5v494h203v-1018h-190q0 45 2 101.5t10 99.5l-2 2q-35 -102 -105.5 -162.5t-173.5 -60.5q-72 0 -118.5 24.5t-76.5 68.5t-42 103.5t-12 128.5z" />
<glyph unicode="v" horiz-adv-x="825" d="M6 1018h221l148 -598q14 -59 22.5 -107.5t18.5 -113.5h4q10 66 18 116t19 105l147 598h213l-268 -1018h-273z" />
<glyph unicode="w" horiz-adv-x="1304" d="M23 1018h208l123 -645l27 -178h2l33 192l129 631h229l135 -639l31 -184h2l33 202l110 621h197l-209 -1018h-264l-135 641l-25 168h-2l-26 -186l-127 -623h-258z" />
<glyph unicode="x" horiz-adv-x="860" d="M18 0l283 518l-266 500h235l168 -356l166 356h219l-252 -498l269 -520h-244l-172 373l-172 -373h-234z" />
<glyph unicode="y" horiz-adv-x="823" d="M-41 -494l25 175q16 -4 40.5 -8.5t47.5 -4.5q33 0 61.5 9.5t56 36t54 74.5t51.5 124l14 43l-307 1063h221l146 -555q14 -59 27.5 -123t23.5 -127h4q10 72 26.5 155t30.5 150l119 500h219l-272 -985q-72 -268 -191.5 -400.5t-322.5 -132.5q-16 0 -33.5 1t-40.5 5z" />
<glyph unicode="z" horiz-adv-x="710" d="M63 0v150l345 688q-37 -2 -82 -3t-97 -1h-157v184h567v-148l-340 -686q41 2 93 3t95 1h160v-188h-584z" />
<glyph unicode="{" horiz-adv-x="638" d="M43 563v158q92 4 132 50t40 173v240q0 94 15.5 167.5t49 125t90 79t136.5 27.5h49v-166h-35q-66 0 -92.5 -49t-26.5 -176v-240q0 -145 -37.5 -217.5t-109.5 -89.5v-2q70 -14 108.5 -91t38.5 -222v-336q0 -135 26 -186.5t93 -51.5h35v-166h-49q-156 0 -223.5 99.5 t-67.5 298.5v350q0 123 -40 173t-132 52z" />
<glyph unicode="|" horiz-adv-x="458" d="M135 -410v1993h189v-1993h-189z" />
<glyph unicode="}" horiz-adv-x="638" d="M82 -244h37q66 0 92.5 49.5t26.5 176.5v350q0 145 37.5 218t109.5 89v2q-70 16 -108.5 92t-38.5 221v228q0 133 -27 184t-92 51h-37v166h49q156 0 224.5 -99.5t68.5 -297.5v-240q0 -123 40 -172t130 -53v-158q-92 -2 -131 -49t-39 -174v-348q0 -188 -65.5 -295 t-227.5 -107h-49v166z" />
<glyph unicode="~" d="M72 942v19q0 121 63.5 194.5t171.5 73.5q63 0 103.5 -24.5t69 -54.5t54 -54.5t60.5 -24.5q41 0 59.5 34t18.5 95h157v-18q0 -121 -63.5 -195t-171.5 -74q-63 0 -103 25t-69 55.5t-54.5 55t-60.5 24.5q-43 0 -60.5 -32.5t-17.5 -98.5h-157z" />
<glyph unicode="&#xa1;" horiz-adv-x="503" d="M102 1042q0 53 38 91t91 38t91 -37.5t38 -91.5q0 -53 -38 -91t-91 -38t-91 38t-38 91zM111 -295l32 1090h174l33 -1090h-239z" />
<glyph unicode="&#xa2;" d="M127 627q0 205 86 336t242 161v179h155v-170q47 -4 101.5 -23.5t99.5 -48.5l-66 -160q-37 29 -88 47.5t-98 18.5q-104 0 -163.5 -80t-59.5 -242q0 -170 56.5 -244.5t166.5 -74.5q109 0 199 65l59 -162q-47 -31 -102.5 -51t-104.5 -24v-203h-155v203q-74 8 -134.5 36.5 t-103.5 85t-66.5 142.5t-23.5 209z" />
<glyph unicode="&#xa3;" d="M104 633v162h138q-10 59 -17.5 118.5t-7.5 122.5q0 201 95.5 292t252.5 91q41 0 90.5 -7t87.5 -17l-36 -170q-29 10 -63 17t-62 7q-80 0 -119 -52t-39 -144q0 -68 8 -131.5t19 -126.5h245v-162h-223q6 -55 6 -115q0 -59 -6 -105t-19.5 -85t-37 -76t-56.5 -76q27 4 63 5 t69 1h286v-182h-667v156q45 39 75.5 73.5t50 73.5t27.5 85t8 106q0 35 -2 69.5t-6 69.5h-160z" />
<glyph unicode="&#xa4;" d="M49 80l129 227q-35 53 -54.5 129t-19.5 176q0 98 20.5 176t59.5 136l-135 239l158 60l106 -187q61 37 144 37q41 0 73.5 -8t63.5 -25l104 183l154 -60l-129 -227q39 -59 56.5 -135t17.5 -166q0 -100 -20.5 -179t-59.5 -137l135 -239l-158 -60l-108 191q-63 -39 -144 -39 q-37 0 -70.5 8t-62.5 25l-106 -185zM283 629q0 -135 43 -217t129 -82q72 0 117.5 74t45.5 221q0 129 -43 211t-126 82q-74 0 -120 -75t-46 -214z" />
<glyph unicode="&#xa5;" d="M6 1382h225l127 -315q25 -66 44.5 -125t33.5 -117h2q18 59 43 133t47 144l115 280h213l-307 -731h229v-139h-243v-174h243v-141h-243v-197h-203v197h-244v141h244v174h-244v139h227z" />
<glyph unicode="&#xa6;" horiz-adv-x="458" d="M135 360h189v-770h-189v770zM135 862v721h189v-721h-189z" />
<glyph unicode="&#xa7;" horiz-adv-x="835" d="M92 700q0 92 37 170t92 127q-23 39 -37 88.5t-14 96.5q0 70 21.5 129t63.5 102t103.5 66.5t143.5 23.5q70 0 145 -16l-31 -174q-29 10 -53 14t-53 4q-66 0 -94.5 -39t-28.5 -100q0 -51 25.5 -103.5t64.5 -106.5t85 -112.5t85 -123t64.5 -136t25.5 -151.5 q0 -86 -37.5 -169t-93.5 -130q25 -37 41.5 -85t16.5 -108q0 -68 -20.5 -127t-63.5 -103t-108.5 -69.5t-154.5 -25.5q-39 0 -77.5 5t-73.5 13l31 176q23 -10 55.5 -15t62.5 -5q63 0 95 41t32 112q0 51 -25.5 103.5t-64.5 106.5t-85 112.5t-85 123t-64.5 135.5t-25.5 150z M279 721q0 -43 14 -87t43 -95.5t71 -112.5t95 -137q20 23 33.5 62.5t13.5 86.5q0 51 -17.5 99.5t-48 99.5t-71.5 108.5t-86 126.5q-18 -25 -32.5 -65.5t-14.5 -85.5z" />
<glyph unicode="&#xa8;" horiz-adv-x="792" d="M111 1317q0 47 33.5 81t80.5 34t80 -34t33 -81t-34 -81t-81 -34t-79.5 34t-32.5 81zM440 1317q0 47 34 81t81 34t80 -34t33 -81t-33 -81t-80 -34t-81 34t-34 81z" />
<glyph unicode="&#xa9;" horiz-adv-x="1253" d="M55 684q0 145 45 271t122 219.5t181.5 146.5t225.5 53q119 0 222 -52t179 -144.5t119 -218t43 -273.5q0 -147 -45 -273t-122 -219.5t-181.5 -146.5t-222.5 -53q-123 0 -226.5 52t-178.5 144.5t-118 218.5t-43 275zM205 686q0 -117 31.5 -217t89 -175t134.5 -118t167 -43 q88 0 164.5 42t132 116t87 174t31.5 219q0 117 -31.5 217t-88 175t-133 118t-166.5 43t-167 -42t-132.5 -115.5t-87 -174t-31.5 -219.5zM350 670q0 88 18.5 159.5t56.5 123t95.5 79t132.5 27.5q41 0 82 -8.5t70 -18.5l-39 -139q-20 10 -47 17.5t-55 7.5q-72 0 -102 -67 t-30 -167q0 -115 30 -167t100 -52q59 0 112 29l37 -138q-35 -16 -82 -26.5t-96 -10.5q-145 0 -214 96.5t-69 254.5z" />
<glyph unicode="&#xaa;" horiz-adv-x="649" d="M66 866q0 59 24.5 106.5t68.5 80t103.5 48t130.5 13.5v45q0 43 -20.5 75t-85.5 32q-43 0 -82 -14.5t-76 -37.5l-47 129q49 27 106.5 41.5t120.5 14.5q129 0 186.5 -62.5t57.5 -158.5v-308v-77.5t4 -98.5h-158q0 23 3.5 47.5t7.5 57.5l-2 2q-23 -55 -69 -87t-106 -32 q-80 0 -123.5 49t-43.5 135zM94 438v133h469v-133h-469zM217 885q0 -74 59 -74q27 0 49.5 16.5t37 41t22.5 53t8 53.5v24q-176 10 -176 -114z" />
<glyph unicode="&#xab;" horiz-adv-x="925" d="M82 582l207 419l157 -73l-167 -346l172 -344l-162 -76zM434 578l217 405l152 -74l-174 -329l176 -324l-156 -78z" />
<glyph unicode="&#xac;" d="M49 532v179h739v-484h-178v305h-561z" />
<glyph unicode="&#xad;" horiz-adv-x="442" d="M49 539v168h367v-168h-367z" />
<glyph unicode="&#xae;" horiz-adv-x="944" d="M72 1053q0 96 30.5 181t85 147.5t127 98.5t156.5 36t155.5 -36t125 -97.5t83 -146.5t29.5 -183q0 -96 -30.5 -180.5t-85 -146.5t-126 -99t-153.5 -37q-84 0 -156.5 36t-126 98t-84 146t-30.5 183zM201 1057q0 -72 20.5 -134.5t56 -109.5t85 -74.5t106.5 -27.5t106.5 26.5 t85 72.5t56 107.5t20.5 133.5q0 70 -20.5 133t-56 110t-85 75t-106.5 28t-106.5 -27t-85 -73t-56 -108.5t-20.5 -131.5zM326 819v473h149q78 0 114 -35.5t36 -95.5q0 -59 -25 -90t-59 -41q6 -10 15 -26.5t17 -36.5l62 -148h-125l-66 189h-14v-189h-104zM430 1085h19 q37 0 50 18.5t13 49.5q0 29 -12.5 44t-48.5 15h-21v-127z" />
<glyph unicode="&#xaf;" horiz-adv-x="614" d="M90 1251v156h434v-156h-434z" />
<glyph unicode="&#xb0;" horiz-adv-x="663" d="M88 1237q0 63 21.5 114.5t55.5 86.5t78 53t89 18q63 0 108 -21.5t74 -58t42 -85t13 -101.5q0 -66 -21.5 -116t-56 -84.5t-79.5 -53t-93 -18.5q-109 0 -170 71.5t-61 194.5zM238 1239q0 -63 24.5 -98t65.5 -35q43 0 67.5 39t24.5 98q0 45 -21.5 89t-68.5 44 q-39 0 -65.5 -38t-26.5 -99z" />
<glyph unicode="&#xb1;" d="M57 645v168h303v334h181v-334h303v-168h-303v-338h-181v338h-303zM61 0v168h779v-168h-779z" />
<glyph unicode="&#xb2;" horiz-adv-x="583" d="M68 1325q45 35 96 53.5t119 18.5q111 0 163 -56.5t52 -136.5q0 -76 -37 -134t-105 -132l-80 -88q20 2 68.5 2h99.5h74v-133h-434v119l106 120q76 82 102.5 130.5t26.5 91.5q0 84 -83 84q-31 0 -58.5 -13.5t-46.5 -33.5z" />
<glyph unicode="&#xb3;" horiz-adv-x="583" d="M66 729l34 115q23 -12 54.5 -19.5t64.5 -7.5q59 0 92 24.5t33 71.5q0 96 -137 97q-23 0 -43.5 -1t-32.5 -1v108h39q74 0 115 23.5t41 70.5q0 35 -23.5 56.5t-79.5 21.5q-33 0 -61.5 -9t-50.5 -26l-33 107q31 16 80 26.5t104 10.5q119 0 172 -49.5t53 -114.5 q0 -55 -27.5 -93t-74.5 -57q51 -10 89 -54t38 -103q0 -98 -73.5 -159.5t-209.5 -61.5q-43 0 -87 7t-76 17z" />
<glyph unicode="&#xb4;" horiz-adv-x="555" d="M96 1253l271 258l120 -125l-299 -227z" />
<glyph unicode="&#xb6;" horiz-adv-x="970" d="M92 942q0 96 29 177t79 139.5t121.5 91t157.5 32.5v-884q-102 0 -175 35.5t-120 96t-69.5 141.5t-22.5 171zM481 -14h125v1396h291v-168h-119v-1394h-297v166z" />
<glyph unicode="&#xb7;" horiz-adv-x="434" d="M82 621q0 57 39 96t94 39q57 0 95 -39t38 -96q0 -55 -38 -94.5t-95 -39.5q-55 0 -94 39t-39 95z" />
<glyph unicode="&#xb8;" horiz-adv-x="550" d="M88 -397q82 68 98.5 143.5t-14.5 153.5h188q14 -47 16.5 -95.5t-16 -95.5t-58.5 -93t-107 -91z" />
<glyph unicode="&#xb9;" horiz-adv-x="581" d="M57 1274l199 108h150v-663h-170v512l-130 -76z" />
<glyph unicode="&#xba;" horiz-adv-x="696" d="M63 1036q0 84 23 151.5t62.5 115t93 72t112.5 24.5q57 0 107.5 -16.5t87.5 -56.5t58.5 -107.5t21.5 -167.5q0 -86 -22.5 -155t-61.5 -117t-94.5 -73.5t-118.5 -25.5q-57 0 -106.5 19.5t-85.5 61.5t-56.5 109.5t-20.5 165.5zM113 438v133h469v-133h-469zM229 1044 q0 -104 26 -162.5t85 -58.5q57 0 90 52t33 169q0 94 -27.5 151.5t-87.5 57.5q-53 0 -86 -50t-33 -159z" />
<glyph unicode="&#xbb;" horiz-adv-x="925" d="M121 907l155 76l216 -397l-216 -408l-151 74l172 332zM477 926l162 75l205 -419l-207 -420l-156 74l166 346z" />
<glyph unicode="&#xbc;" horiz-adv-x="1218" d="M41 1274l199 108h149v-663h-170v512l-129 -76zM76 31l885 1407l131 -86l-885 -1405zM647 254l182 410h236v-414h74v-121h-74v-129h-150v129h-262zM774 248q14 0 34.5 1t42 1h40h29.5v323z" />
<glyph unicode="&#xbd;" horiz-adv-x="1280" d="M41 1274l199 108h149v-663h-170v512l-129 -76zM94 31l885 1407l131 -86l-885 -1405zM760 606q45 35 96 53.5t119 18.5q111 0 164 -56.5t53 -136.5q0 -76 -38 -134t-103 -132l-82 -88q20 2 68 2h100h73v-133h-434v119l109 121q76 82 101.5 130t25.5 91q0 84 -84 84 q-31 0 -58.5 -13.5t-46.5 -33.5z" />
<glyph unicode="&#xbe;" horiz-adv-x="1222" d="M51 729l35 115q47 -27 113 -27q57 0 88.5 24.5t31.5 71.5q0 96 -131 97q-20 0 -39.5 -1t-31.5 -1v108h37q147 0 147 94q0 35 -22.5 56.5t-75.5 21.5q-29 0 -56.5 -9t-50.5 -26l-35 107q33 16 81 26.5t104 10.5q119 0 173 -49.5t54 -114.5q0 -55 -27.5 -93t-74.5 -57 q51 -10 88 -54t37 -103q0 -98 -74 -159.5t-209 -61.5q-41 0 -85 7t-77 17zM94 31l885 1407l129 -86l-885 -1405zM666 254l182 410h235v-414h72v-121h-72v-129h-151v129h-262zM791 248q14 0 34.5 1t42 1h41h29.5v323z" />
<glyph unicode="&#xbf;" horiz-adv-x="710" d="M59 96q0 80 25 136.5t60.5 102.5t75.5 88t68.5 93t39 117.5t-12.5 161.5h195q29 -98 22.5 -172t-32 -131.5t-63.5 -102.5t-73.5 -88t-60 -86t-24.5 -98q0 -98 87 -163t246 -75l-24 -186q-135 8 -234.5 43t-165 89t-97.5 123.5t-32 147.5zM281 1042q0 53 36.5 91t92.5 38 q53 0 91 -37.5t38 -91.5q0 -53 -38 -91t-91 -38q-55 0 -92 38t-37 91z" />
<glyph unicode="&#xc0;" horiz-adv-x="1019" d="M6 0l356 1382h293l359 -1382h-221l-78 307h-426l-78 -307h-205zM248 1561l63 145l351 -143l-46 -105zM326 479h350l-133 529q-12 47 -22.5 94t-18.5 94h-2q-6 -45 -16.5 -91t-20.5 -93z" />
<glyph unicode="&#xc1;" horiz-adv-x="1019" d="M6 0l356 1382h293l359 -1382h-221l-78 307h-426l-78 -307h-205zM326 479h350l-133 529q-12 47 -22.5 94t-18.5 94h-2q-6 -45 -16.5 -91t-20.5 -93zM352 1563l350 143l62 -145l-369 -103z" />
<glyph unicode="&#xc2;" horiz-adv-x="1019" d="M6 0l356 1382h293l359 -1382h-221l-78 307h-426l-78 -307h-205zM240 1561l268 145l268 -143l-55 -105l-215 96l-215 -96zM326 479h350l-133 529q-12 47 -22.5 94t-18.5 94h-2q-6 -45 -16.5 -91t-20.5 -93z" />
<glyph unicode="&#xc3;" horiz-adv-x="1019" d="M6 0l356 1382h293l359 -1382h-221l-78 307h-426l-78 -307h-205zM158 1540q33 76 84 118t137 42q45 0 77.5 -13.5t59.5 -31t50.5 -30.5t51.5 -13q72 0 117 88l101 -70q-35 -70 -86.5 -113.5t-137.5 -43.5q-45 0 -76.5 13t-57 30.5t-49 31t-54.5 13.5q-72 0 -117 -88z M326 479h350l-133 529q-12 47 -22.5 94t-18.5 94h-2q-6 -45 -16.5 -91t-20.5 -93z" />
<glyph unicode="&#xc4;" horiz-adv-x="1019" d="M6 0l356 1382h293l359 -1382h-221l-78 307h-426l-78 -307h-205zM225 1585q0 45 31 76t76 31t75.5 -31t30.5 -76t-30.5 -75.5t-75.5 -30.5t-76 30.5t-31 75.5zM326 479h350l-133 529q-12 47 -22.5 94t-18.5 94h-2q-6 -45 -16.5 -91t-20.5 -93zM573 1585q0 45 32 76t77 31 q43 0 74.5 -31t31.5 -76t-31.5 -75.5t-74.5 -30.5q-45 0 -77 30.5t-32 75.5z" />
<glyph unicode="&#xc5;" horiz-adv-x="1019" d="M6 0l348 1350q-63 51 -63 153q0 84 59.5 143.5t165.5 59.5q113 0 165 -55.5t52 -141.5q0 -47 -18.5 -87t-52.5 -68l352 -1354h-221l-78 307h-426l-78 -307h-205zM326 479h350l-133 529q-12 47 -22.5 94t-18.5 94h-2q-6 -45 -16.5 -91t-20.5 -93zM424 1509 q0 -47 23.5 -74.5t66.5 -27.5q39 0 61.5 26.5t22.5 67.5q0 100 -88 101q-41 0 -63.5 -27t-22.5 -66z" />
<glyph unicode="&#xc6;" horiz-adv-x="1280" d="M-63 0l544 1382h707v-176h-389v-407h366v-170h-366v-451h395v-178h-594v328h-326l-124 -328h-213zM330 492h270v712h-2q-14 -47 -33.5 -104.5t-36.5 -98.5z" />
<glyph unicode="&#xc7;" horiz-adv-x="876" d="M61 664q0 162 31 297t93.5 232t159.5 151.5t230 54.5q68 0 134.5 -14.5t119.5 -36.5l-47 -183q-90 45 -198 45q-80 0 -136.5 -40t-92.5 -110.5t-52 -166.5t-16 -209q0 -246 70.5 -379t224.5 -133q61 0 114.5 15.5t96.5 39.5l49 -178q-59 -31 -132 -49t-165 -18 q-131 0 -222.5 46t-149.5 134t-85 215t-27 287zM350 -397q82 68 98.5 143.5t-14.5 153.5h189q14 -47 16 -95.5t-16.5 -95.5t-58.5 -93t-107 -91z" />
<glyph unicode="&#xc8;" horiz-adv-x="802" d="M117 0v1382h598v-176h-393v-407h370v-170h-370v-451h395v-178h-600zM141 1561l64 145l352 -143l-47 -105z" />
<glyph unicode="&#xc9;" horiz-adv-x="802" d="M117 0v1382h598v-176h-393v-407h370v-170h-370v-451h395v-178h-600zM240 1563l352 143l59 -145l-368 -103z" />
<glyph unicode="&#xca;" horiz-adv-x="802" d="M117 0v1382h598v-176h-393v-407h370v-170h-370v-451h395v-178h-600zM145 1561l267 145l268 -143l-53 -105l-215 96l-215 -96z" />
<glyph unicode="&#xcb;" horiz-adv-x="802" d="M117 0v1382h598v-176h-393v-407h370v-170h-370v-451h395v-178h-600zM129 1585q0 45 32 76t77 31t75.5 -31t30.5 -76t-30.5 -75.5t-75.5 -30.5t-77 30.5t-32 75.5zM479 1585q0 45 31 76t76 31t75.5 -31t30.5 -76t-30.5 -75.5t-75.5 -30.5t-76 30.5t-31 75.5z" />
<glyph unicode="&#xcc;" horiz-adv-x="440" d="M-49 1561l63 145l351 -143l-46 -105zM117 0v1382h205v-1382h-205z" />
<glyph unicode="&#xcd;" horiz-adv-x="440" d="M68 1563l352 143l59 -145l-368 -103zM117 0v1382h205v-1382h-205z" />
<glyph unicode="&#xce;" horiz-adv-x="440" d="M-45 1561l268 145l269 -143l-56 -105l-213 96l-215 -96zM117 0v1382h205v-1382h-205z" />
<glyph unicode="&#xcf;" horiz-adv-x="440" d="M-59 1585q0 45 30.5 76t75.5 31t77 -31t32 -76t-32 -75.5t-77 -30.5t-75.5 30.5t-30.5 75.5zM117 0v1382h205v-1382h-205zM291 1585q0 45 30.5 76t75.5 31t76 -31t31 -76t-31 -75.5t-76 -30.5t-75.5 30.5t-30.5 75.5z" />
<glyph unicode="&#xd0;" horiz-adv-x="1107" d="M18 627v161h119v594q63 0 156.5 3.5t191.5 3.5q125 0 228.5 -36t177.5 -117t113.5 -210t39.5 -315q0 -190 -43 -325.5t-122.5 -222.5t-190 -128t-246.5 -41q-86 0 -160.5 2t-144.5 4v627h-119zM342 182q25 -4 59.5 -7t65.5 -3q80 0 146.5 28.5t113.5 91t72.5 163 t25.5 243.5q0 258 -78.5 387t-263.5 129q-41 0 -77.5 -1t-63.5 -5v-420h199v-161h-199v-445z" />
<glyph unicode="&#xd1;" horiz-adv-x="1128" d="M117 0v1382h286l349 -841q18 -45 38.5 -106.5t43.5 -127.5q-4 72 -5.5 161t-2.5 184.5t-1 188.5v173v368h187v-1382h-273l-358 883q-23 55 -44.5 115.5t-41.5 125.5q2 -53 4 -131t3 -166t1 -179v-167v-481h-186zM219 1540q33 76 84 118t137 42q45 0 78 -13.5t59.5 -31 t50 -30.5t52.5 -13q72 0 117 88l100 -70q-35 -70 -86 -113.5t-137 -43.5q-45 0 -77 13t-57.5 30.5t-49 31t-54.5 13.5q-72 0 -117 -88z" />
<glyph unicode="&#xd2;" horiz-adv-x="1153" d="M59 680q0 156 33 288t99.5 228t167 150.5t235.5 54.5q131 0 225 -49t155.5 -140.5t90.5 -220t29 -286.5q0 -160 -34 -294.5t-101.5 -229.5t-168 -148t-233.5 -53q-127 0 -221 49t-155.5 139t-91.5 220t-30 292zM276 696q0 -530 297 -530q154 0 229 138t75 386 q0 268 -76 397.5t-223 129.5q-145 0 -223.5 -134.5t-78.5 -386.5zM313 1561l64 145l350 -143l-45 -105z" />
<glyph unicode="&#xd3;" horiz-adv-x="1153" d="M59 680q0 156 33 288t99.5 228t167 150.5t235.5 54.5q131 0 225 -49t155.5 -140.5t90.5 -220t29 -286.5q0 -160 -34 -294.5t-101.5 -229.5t-168 -148t-233.5 -53q-127 0 -221 49t-155.5 139t-91.5 220t-30 292zM276 696q0 -530 297 -530q154 0 229 138t75 386 q0 268 -76 397.5t-223 129.5q-145 0 -223.5 -134.5t-78.5 -386.5zM459 1563l352 143l59 -145l-368 -103z" />
<glyph unicode="&#xd4;" horiz-adv-x="1153" d="M59 680q0 156 33 288t99.5 228t167 150.5t235.5 54.5q131 0 225 -49t155.5 -140.5t90.5 -220t29 -286.5q0 -160 -34 -294.5t-101.5 -229.5t-168 -148t-233.5 -53q-127 0 -221 49t-155.5 139t-91.5 220t-30 292zM276 696q0 -530 297 -530q154 0 229 138t75 386 q0 268 -76 397.5t-223 129.5q-145 0 -223.5 -134.5t-78.5 -386.5zM322 1561l268 145l266 -143l-53 -105l-215 96l-215 -96z" />
<glyph unicode="&#xd5;" horiz-adv-x="1153" d="M59 680q0 156 33 288t99.5 228t167 150.5t235.5 54.5q131 0 225 -49t155.5 -140.5t90.5 -220t29 -286.5q0 -160 -34 -294.5t-101.5 -229.5t-168 -148t-233.5 -53q-127 0 -221 49t-155.5 139t-91.5 220t-30 292zM231 1540q35 76 86.5 118t137.5 42q45 0 76.5 -13.5t58 -31 t50.5 -30.5t52 -13q72 0 117 88l100 -70q-33 -70 -84 -113.5t-137 -43.5q-47 0 -78.5 13t-57.5 30.5t-49.5 31t-53.5 13.5q-68 0 -117 -88zM276 696q0 -530 297 -530q154 0 229 138t75 386q0 268 -76 397.5t-223 129.5q-145 0 -223.5 -134.5t-78.5 -386.5z" />
<glyph unicode="&#xd6;" horiz-adv-x="1153" d="M59 680q0 156 33 288t99.5 228t167 150.5t235.5 54.5q131 0 225 -49t155.5 -140.5t90.5 -220t29 -286.5q0 -160 -34 -294.5t-101.5 -229.5t-168 -148t-233.5 -53q-127 0 -221 49t-155.5 139t-91.5 220t-30 292zM276 696q0 -530 297 -530q154 0 229 138t75 386 q0 268 -76 397.5t-223 129.5q-145 0 -223.5 -134.5t-78.5 -386.5zM299 1585q0 45 32 76t77 31t75.5 -31t30.5 -76t-30.5 -75.5t-75.5 -30.5t-77 30.5t-32 75.5zM649 1585q0 45 31 76t76 31t75.5 -31t30.5 -76t-30.5 -75.5t-75.5 -30.5t-76 30.5t-31 75.5z" />
<glyph unicode="&#xd7;" d="M72 283l274 338l-274 340l127 104l252 -315l251 315l127 -104l-274 -340l274 -338l-127 -105l-251 316l-252 -316z" />
<glyph unicode="&#xd8;" horiz-adv-x="1153" d="M59 680q0 156 33 288t99.5 228t167 150.5t235.5 54.5q133 0 223 -51l92 178l142 -76l-105 -205q76 -90 112 -227t36 -315q0 -160 -34 -294.5t-101.5 -229.5t-168 -148t-233.5 -53q-127 0 -227 53l-86 -170l-142 76l101 200q-74 90 -109 227.5t-35 313.5zM262 696 q0 -104 15.5 -185t50.5 -138l401 809q-63 47 -151 47q-152 0 -234 -137.5t-82 -395.5zM420 203q61 -49 153 -49q160 0 238 142t78 394q0 213 -64 328z" />
<glyph unicode="&#xd9;" horiz-adv-x="1114" d="M115 467v915h204v-897q0 -162 54.5 -246.5t189.5 -84.5q127 0 179.5 78.5t52.5 240.5v909h204v-890q0 -119 -25.5 -214.5t-78.5 -161t-138 -101t-202 -35.5q-125 0 -210 35.5t-136 100t-72.5 153.5t-21.5 198zM266 1561l64 145l352 -143l-47 -105z" />
<glyph unicode="&#xda;" horiz-adv-x="1114" d="M115 467v915h204v-897q0 -162 54.5 -246.5t189.5 -84.5q127 0 179.5 78.5t52.5 240.5v909h204v-890q0 -119 -25.5 -214.5t-78.5 -161t-138 -101t-202 -35.5q-125 0 -210 35.5t-136 100t-72.5 153.5t-21.5 198zM440 1563l351 143l61 -145l-369 -103z" />
<glyph unicode="&#xdb;" horiz-adv-x="1114" d="M115 467v915h204v-897q0 -162 54.5 -246.5t189.5 -84.5q127 0 179.5 78.5t52.5 240.5v909h204v-890q0 -119 -25.5 -214.5t-78.5 -161t-138 -101t-202 -35.5q-125 0 -210 35.5t-136 100t-72.5 153.5t-21.5 198zM293 1561l268 145l268 -143l-55 -105l-213 96l-215 -96z" />
<glyph unicode="&#xdc;" horiz-adv-x="1114" d="M115 467v915h204v-897q0 -162 54.5 -246.5t189.5 -84.5q127 0 179.5 78.5t52.5 240.5v909h204v-890q0 -119 -25.5 -214.5t-78.5 -161t-138 -101t-202 -35.5q-125 0 -210 35.5t-136 100t-72.5 153.5t-21.5 198zM274 1585q0 45 31 76t76 31t75.5 -31t30.5 -76t-30.5 -75.5 t-75.5 -30.5t-76 30.5t-31 75.5zM623 1585q0 45 31.5 76t76.5 31t76 -31t31 -76t-31 -75.5t-76 -30.5t-76.5 30.5t-31.5 75.5z" />
<glyph unicode="&#xdd;" horiz-adv-x="905" d="M4 1382h225l160 -452q23 -57 41.5 -117.5t28.5 -105.5h2q14 53 34.5 115.5t36.5 109.5l154 450h217l-346 -897v-485h-205v483zM360 1563l353 143l59 -145l-369 -103z" />
<glyph unicode="&#xde;" horiz-adv-x="872" d="M117 0v1382h205v-219h98q203 0 306 -113.5t103 -306.5q0 -102 -31.5 -187t-89 -144.5t-137 -92t-176.5 -32.5h-34.5t-38.5 4v-291h-205zM322 465q39 -6 79 -6q102 0 159.5 71.5t57.5 200.5q0 123 -50 191.5t-158 68.5h-40t-48 -2v-524z" />
<glyph unicode="&#xdf;" horiz-adv-x="993" d="M117 0v1040q0 121 28.5 208t79.5 143.5t122 83t155 26.5q82 0 144.5 -22.5t103.5 -62.5t62.5 -93t21.5 -115q0 -90 -30 -143t-67 -93t-66.5 -78t-29.5 -95q0 -47 22.5 -81t55.5 -64.5t71.5 -61.5t71.5 -71t55.5 -93t22.5 -127q0 -141 -93 -230t-265 -89q-41 0 -83 5 t-73 13l23 172q29 -12 64.5 -20.5t74.5 -8.5q74 0 109.5 42t35.5 96q0 55 -21.5 92t-54 67.5t-71.5 58t-72 64.5t-54.5 87t-21.5 124q0 80 30 129t64.5 89t64.5 84t30 116q0 76 -36 111.5t-102 35.5q-82 0 -126 -64.5t-44 -205.5v-1069h-202z" />
<glyph unicode="&#xe0;" horiz-adv-x="847" d="M53 258q0 168 125 260t354 88v78q0 90 -35.5 141.5t-127.5 51.5q-55 0 -115.5 -19.5t-101.5 -48.5l-58 147q61 35 138 58.5t163 23.5q182 0 261 -89t79 -242v-422v-144.5t4 -140.5h-184q0 47 2 94t8 80l-2 2q-27 -86 -96.5 -140t-167.5 -54q-111 0 -178.5 69.5 t-67.5 206.5zM170 1384l121 127l270 -256l-92 -96zM250 279q0 -137 102 -138q39 0 73 24.5t57.5 64.5t36.5 92.5t13 105.5v39q-84 2 -138 -11.5t-87 -40t-45 -61.5t-12 -75z" />
<glyph unicode="&#xe1;" horiz-adv-x="847" d="M53 258q0 168 125 260t354 88v78q0 90 -35.5 141.5t-127.5 51.5q-55 0 -115.5 -19.5t-101.5 -48.5l-58 147q61 35 138 58.5t163 23.5q182 0 261 -89t79 -242v-422v-144.5t4 -140.5h-184q0 47 2 94t8 80l-2 2q-27 -86 -96.5 -140t-167.5 -54q-111 0 -178.5 69.5 t-67.5 206.5zM250 279q0 -137 102 -138q39 0 73 24.5t57.5 64.5t36.5 92.5t13 105.5v39q-84 2 -138 -11.5t-87 -40t-45 -61.5t-12 -75zM291 1253l270 258l121 -125l-299 -227z" />
<glyph unicode="&#xe2;" horiz-adv-x="847" d="M53 258q0 168 125 260t354 88v78q0 90 -35.5 141.5t-127.5 51.5q-55 0 -115.5 -19.5t-101.5 -48.5l-58 147q61 35 138 58.5t163 23.5q182 0 261 -89t79 -242v-422v-144.5t4 -140.5h-184q0 47 2 94t8 80l-2 2q-27 -86 -96.5 -140t-167.5 -54q-111 0 -178.5 69.5 t-67.5 206.5zM162 1251l258 256l262 -254l-86 -94l-180 160l-170 -160zM250 279q0 -137 102 -138q39 0 73 24.5t57.5 64.5t36.5 92.5t13 105.5v39q-84 2 -138 -11.5t-87 -40t-45 -61.5t-12 -75z" />
<glyph unicode="&#xe3;" horiz-adv-x="847" d="M53 258q0 168 125 260t354 88v78q0 90 -35.5 141.5t-127.5 51.5q-55 0 -115.5 -19.5t-101.5 -48.5l-58 147q61 35 138 58.5t163 23.5q182 0 261 -89t79 -242v-422v-144.5t4 -140.5h-184q0 47 2 94t8 80l-2 2q-27 -86 -96.5 -140t-167.5 -54q-111 0 -178.5 69.5 t-67.5 206.5zM96 1268q31 70 80 118t133 48q45 0 76 -13.5t54.5 -31t44 -30.5t44.5 -13q37 0 61.5 21.5t47.5 66.5l100 -68q-29 -72 -78 -119t-133 -47q-49 0 -79.5 13.5t-53 31t-42 30.5t-46.5 13q-35 0 -60.5 -22.5t-47.5 -65.5zM250 279q0 -137 102 -138q39 0 73 24.5 t57.5 64.5t36.5 92.5t13 105.5v39q-84 2 -138 -11.5t-87 -40t-45 -61.5t-12 -75z" />
<glyph unicode="&#xe4;" horiz-adv-x="847" d="M53 258q0 168 125 260t354 88v78q0 90 -35.5 141.5t-127.5 51.5q-55 0 -115.5 -19.5t-101.5 -48.5l-58 147q61 35 138 58.5t163 23.5q182 0 261 -89t79 -242v-422v-144.5t4 -140.5h-184q0 47 2 94t8 80l-2 2q-27 -86 -96.5 -140t-167.5 -54q-111 0 -178.5 69.5 t-67.5 206.5zM137 1317q0 47 34 81t81 34t80 -34t33 -81t-34 -81t-81 -34t-80 34t-33 81zM250 279q0 -137 102 -138q39 0 73 24.5t57.5 64.5t36.5 92.5t13 105.5v39q-84 2 -138 -11.5t-87 -40t-45 -61.5t-12 -75zM467 1317q0 47 34 81t81 34t79.5 -34t32.5 -81t-32.5 -81 t-79.5 -34t-81 34t-34 81z" />
<glyph unicode="&#xe5;" horiz-adv-x="847" d="M53 258q0 168 125 260t354 88v78q0 90 -35.5 141.5t-127.5 51.5q-55 0 -115.5 -19.5t-101.5 -48.5l-58 147q61 35 138 58.5t163 23.5q182 0 261 -89t79 -242v-422v-144.5t4 -140.5h-184q0 47 2 94t8 80l-2 2q-27 -86 -96.5 -140t-167.5 -54q-111 0 -178.5 69.5 t-67.5 206.5zM205 1337q0 84 58.5 143.5t164.5 59.5q113 0 165 -55.5t52 -141.5t-59.5 -145t-165.5 -59q-111 0 -163 54t-52 144zM250 279q0 -137 102 -138q39 0 73 24.5t57.5 64.5t36.5 92.5t13 105.5v39q-84 2 -138 -11.5t-87 -40t-45 -61.5t-12 -75zM338 1343 q0 -100 88 -100q41 0 63.5 26.5t22.5 67.5q0 47 -23.5 74t-64.5 27t-63.5 -27t-22.5 -68z" />
<glyph unicode="&#xe6;" horiz-adv-x="1314" d="M53 258q0 168 125 260t354 88v82q0 88 -36.5 138.5t-130.5 50.5q-53 0 -110.5 -19.5t-98.5 -48.5l-68 147q63 37 142 59.5t167 22.5q199 0 265 -129q37 61 101 95t150 34t150.5 -32.5t105.5 -90t61.5 -136.5t20.5 -173v-51.5t-4 -60.5h-514v-27q0 -174 57.5 -250 t167.5 -76q66 0 120.5 16.5t111.5 45.5l51 -150q-72 -35 -150.5 -54t-164.5 -19q-123 0 -202 48t-120 156q-49 -98 -128 -150t-177 -52q-111 0 -178.5 69.5t-67.5 206.5zM250 279q0 -137 102 -138q39 0 73 24.5t57.5 64.5t36.5 92.5t13 105.5v39q-84 2 -138 -11.5t-87 -40 t-45 -61.5t-12 -75zM737 639h314q0 117 -36 180.5t-114 63.5q-76 0 -116 -66.5t-48 -177.5z" />
<glyph unicode="&#xe7;" horiz-adv-x="702" d="M57 473q0 262 105.5 411.5t306.5 149.5q53 0 103.5 -9t95.5 -26l-54 -172q-63 33 -147 33q-98 0 -148.5 -94t-50.5 -266q0 -72 9.5 -133.5t32 -107.5t59.5 -71.5t94 -25.5q86 0 158 45l51 -166q-104 -55 -244 -55q-84 0 -151.5 25.5t-116.5 83t-76 150.5t-27 228z M225 -397q80 68 97.5 143.5t-13.5 153.5h189q14 -47 16 -95.5t-16.5 -95.5t-58.5 -93t-107 -91z" />
<glyph unicode="&#xe8;" horiz-adv-x="847" d="M57 502q0 111 22.5 208t70 169.5t121 115.5t175.5 43q86 0 151 -32.5t105.5 -90t61 -136.5t20.5 -173v-51.5t-4 -60.5h-514v-27q0 -174 57.5 -250t168.5 -76q68 0 121 16.5t110 45.5l51 -150q-72 -35 -150.5 -54t-164.5 -19q-199 0 -300.5 123.5t-101.5 398.5zM190 1384 l121 127l271 -256l-93 -96zM270 639h314q0 117 -35 180.5t-113 63.5t-117.5 -66.5t-48.5 -177.5z" />
<glyph unicode="&#xe9;" horiz-adv-x="847" d="M57 502q0 111 22.5 208t70 169.5t121 115.5t175.5 43q86 0 151 -32.5t105.5 -90t61 -136.5t20.5 -173v-51.5t-4 -60.5h-514v-27q0 -174 57.5 -250t168.5 -76q68 0 121 16.5t110 45.5l51 -150q-72 -35 -150.5 -54t-164.5 -19q-199 0 -300.5 123.5t-101.5 398.5zM270 639 h314q0 117 -35 180.5t-113 63.5t-117.5 -66.5t-48.5 -177.5zM307 1253l268 258l121 -125l-299 -227z" />
<glyph unicode="&#xea;" horiz-adv-x="847" d="M57 502q0 111 22.5 208t70 169.5t121 115.5t175.5 43q86 0 151 -32.5t105.5 -90t61 -136.5t20.5 -173v-51.5t-4 -60.5h-514v-27q0 -174 57.5 -250t168.5 -76q68 0 121 16.5t110 45.5l51 -150q-72 -35 -150.5 -54t-164.5 -19q-199 0 -300.5 123.5t-101.5 398.5zM172 1251 l258 256l262 -254l-84 -94l-180 160l-172 -160zM270 639h314q0 117 -35 180.5t-113 63.5t-117.5 -66.5t-48.5 -177.5z" />
<glyph unicode="&#xeb;" horiz-adv-x="847" d="M57 502q0 111 22.5 208t70 169.5t121 115.5t175.5 43q86 0 151 -32.5t105.5 -90t61 -136.5t20.5 -173v-51.5t-4 -60.5h-514v-27q0 -174 57.5 -250t168.5 -76q68 0 121 16.5t110 45.5l51 -150q-72 -35 -150.5 -54t-164.5 -19q-199 0 -300.5 123.5t-101.5 398.5zM154 1317 q0 47 32.5 81t79.5 34t81 -34t34 -81t-34 -81t-81 -34t-79.5 34t-32.5 81zM270 639h314q0 117 -35 180.5t-113 63.5t-117.5 -66.5t-48.5 -177.5zM483 1317q0 47 34 81t81 34t80 -34t33 -81t-34 -81t-81 -34t-80 34t-33 81z" />
<glyph unicode="&#xec;" horiz-adv-x="432" d="M-8 1384l119 127l270 -256l-90 -96zM117 0v1018h202v-1018h-202z" />
<glyph unicode="&#xed;" horiz-adv-x="432" d="M63 1253l271 258l121 -125l-299 -227zM117 0v1018h202v-1018h-202z" />
<glyph unicode="&#xee;" horiz-adv-x="432" d="M-43 1251l258 256l262 -254l-84 -94l-180 160l-172 -160zM117 0v1018h202v-1018h-202z" />
<glyph unicode="&#xef;" horiz-adv-x="432" d="M-61 1317q0 47 33.5 81t80.5 34t80 -34t33 -81t-34 -81t-81 -34t-79.5 34t-32.5 81zM117 0v1018h202v-1018h-202zM268 1317q0 47 34 81t81 34t80 -34t33 -81t-34 -81t-81 -34t-80 34t-33 81z" />
<glyph unicode="&#xf0;" horiz-adv-x="929" d="M57 498q0 123 28 222t79 167.5t120.5 106.5t155.5 38q51 0 88 -20.5t54 -55.5q-18 57 -49 113.5t-74 110.5l-189 -90l-98 120l174 84q-63 61 -153 119l200 92q78 -51 148 -121l170 82l100 -123l-164 -75q98 -133 149.5 -298t51.5 -366q0 -168 -32 -286.5t-88 -193.5 t-131 -109.5t-161 -34.5q-379 0 -379 518zM264 524q0 -377 191 -377q86 0 135 97.5t49 318.5q0 66 -11.5 122t-36 97t-61 64.5t-88.5 23.5q-88 0 -133 -90t-45 -256z" />
<glyph unicode="&#xf1;" horiz-adv-x="933" d="M115 0v1018h188q0 -45 -2 -101.5t-10 -99.5l2 -2q35 102 106.5 162.5t173.5 60.5q70 0 118 -24.5t77 -68.5t41 -103.5t12 -128.5v-713h-200v672q0 94 -24 142t-83 48q-47 0 -84 -34.5t-61.5 -89t-38 -119t-13.5 -125.5v-494h-202zM137 1268q31 70 80 118t133 48 q45 0 76 -13.5t53.5 -31t43 -30.5t46.5 -13q37 0 61.5 21.5t47.5 66.5l100 -68q-29 -72 -79 -119t-132 -47q-49 0 -79.5 13.5t-53 31t-42 30.5t-46.5 13q-35 0 -60.5 -22.5t-48.5 -65.5z" />
<glyph unicode="&#xf2;" horiz-adv-x="905" d="M57 500q0 115 26 213t77 170.5t126.5 113.5t176.5 41q201 0 293 -137t92 -381q0 -119 -25.5 -218t-77 -171t-127 -111.5t-176.5 -39.5q-201 0 -293 136t-92 384zM221 1384l121 127l270 -256l-92 -96zM264 520q0 -188 47 -280.5t150 -92.5q86 0 132 88.5t46 264.5 q0 186 -46 278t-147 92q-88 0 -135 -87t-47 -263z" />
<glyph unicode="&#xf3;" horiz-adv-x="905" d="M57 500q0 115 26 213t77 170.5t126.5 113.5t176.5 41q201 0 293 -137t92 -381q0 -119 -25.5 -218t-77 -171t-127 -111.5t-176.5 -39.5q-201 0 -293 136t-92 384zM264 520q0 -188 47 -280.5t150 -92.5q86 0 132 88.5t46 264.5q0 186 -46 278t-147 92q-88 0 -135 -87 t-47 -263zM332 1253l268 258l121 -125l-299 -227z" />
<glyph unicode="&#xf4;" horiz-adv-x="905" d="M57 500q0 115 26 213t77 170.5t126.5 113.5t176.5 41q201 0 293 -137t92 -381q0 -119 -25.5 -218t-77 -171t-127 -111.5t-176.5 -39.5q-201 0 -293 136t-92 384zM193 1251l258 256l262 -254l-84 -94l-180 160l-173 -160zM264 520q0 -188 47 -280.5t150 -92.5 q86 0 132 88.5t46 264.5q0 186 -46 278t-147 92q-88 0 -135 -87t-47 -263z" />
<glyph unicode="&#xf5;" horiz-adv-x="905" d="M57 500q0 115 26 213t77 170.5t126.5 113.5t176.5 41q201 0 293 -137t92 -381q0 -119 -25.5 -218t-77 -171t-127 -111.5t-176.5 -39.5q-201 0 -293 136t-92 384zM121 1268q31 70 80 118t133 48q45 0 75.5 -13.5t54 -31t44 -30.5t45.5 -13q37 0 61.5 21.5t47.5 66.5 l100 -68q-29 -72 -78 -119t-133 -47q-49 0 -80 13.5t-53.5 31t-42 30.5t-45.5 13q-35 0 -60.5 -22.5t-48.5 -65.5zM264 520q0 -188 47 -280.5t150 -92.5q86 0 132 88.5t46 264.5q0 186 -46 278t-147 92q-88 0 -135 -87t-47 -263z" />
<glyph unicode="&#xf6;" horiz-adv-x="905" d="M57 500q0 115 26 213t77 170.5t126.5 113.5t176.5 41q201 0 293 -137t92 -381q0 -119 -25.5 -218t-77 -171t-127 -111.5t-176.5 -39.5q-201 0 -293 136t-92 384zM170 1317q0 47 34 81t81 34t80.5 -34t33.5 -81t-33.5 -81t-80.5 -34t-81 34t-34 81zM264 520 q0 -188 47 -280.5t150 -92.5q86 0 132 88.5t46 264.5q0 186 -46 278t-147 92q-88 0 -135 -87t-47 -263zM502 1317q0 47 32.5 81t79.5 34t81 -34t34 -81t-33.5 -81t-81.5 -34q-47 0 -79.5 34t-32.5 81z" />
<glyph unicode="&#xf7;" d="M49 535v176h803v-176h-803zM319 225q0 55 38.5 94t93.5 39t93 -38.5t38 -94.5q0 -55 -38 -93t-93 -38t-93.5 38t-38.5 93zM319 1016q0 55 38.5 94t93.5 39t93 -39t38 -94q0 -53 -38 -92t-93 -39t-93.5 39t-38.5 92z" />
<glyph unicode="&#xf8;" horiz-adv-x="905" d="M57 500q0 117 27 216t78 170.5t127 111.5t176 40q80 0 149 -26l78 168l121 -54l-88 -188q61 -66 92 -171t31 -247q0 -119 -26.5 -218t-78 -171t-127 -111.5t-176.5 -39.5q-78 0 -147 26l-78 -168l-123 51l90 189q-125 127 -125 422zM250 522q0 -154 39 -225l248 559 q-42 23 -95 23q-193 0 -192 -357zM369 164q39 -25 92 -25q94 0 144 89t50 270q0 147 -39 219z" />
<glyph unicode="&#xf9;" horiz-adv-x="933" d="M111 305v713h202v-672q0 -94 23.5 -142t83.5 -48q45 0 82 34.5t62.5 89t38.5 119t13 125.5v494h203v-1018h-190q0 45 2 101.5t10 99.5l-2 2q-35 -102 -105.5 -162.5t-173.5 -60.5q-72 0 -118.5 24.5t-76.5 68.5t-42 103.5t-12 128.5zM193 1384l121 127l270 -256l-92 -96z " />
<glyph unicode="&#xfa;" horiz-adv-x="933" d="M111 305v713h202v-672q0 -94 23.5 -142t83.5 -48q45 0 82 34.5t62.5 89t38.5 119t13 125.5v494h203v-1018h-190q0 45 2 101.5t10 99.5l-2 2q-35 -102 -105.5 -162.5t-173.5 -60.5q-72 0 -118.5 24.5t-76.5 68.5t-42 103.5t-12 128.5zM356 1253l271 258l120 -125 l-299 -227z" />
<glyph unicode="&#xfb;" horiz-adv-x="933" d="M111 305v713h202v-672q0 -94 23.5 -142t83.5 -48q45 0 82 34.5t62.5 89t38.5 119t13 125.5v494h203v-1018h-190q0 45 2 101.5t10 99.5l-2 2q-35 -102 -105.5 -162.5t-173.5 -60.5q-72 0 -118.5 24.5t-76.5 68.5t-42 103.5t-12 128.5zM198 1251l258 256l263 -254l-84 -94 l-181 160l-172 -160z" />
<glyph unicode="&#xfc;" horiz-adv-x="933" d="M111 305v713h202v-672q0 -94 23.5 -142t83.5 -48q45 0 82 34.5t62.5 89t38.5 119t13 125.5v494h203v-1018h-190q0 45 2 101.5t10 99.5l-2 2q-35 -102 -105.5 -162.5t-173.5 -60.5q-72 0 -118.5 24.5t-76.5 68.5t-42 103.5t-12 128.5zM177 1317q0 47 33.5 81t80.5 34 t80 -34t33 -81t-34 -81t-81 -34t-79.5 34t-32.5 81zM506 1317q0 47 34 81t81 34t80 -34t33 -81t-33 -81t-80 -34t-81 34t-34 81z" />
<glyph unicode="&#xfd;" horiz-adv-x="823" d="M-41 -494l25 175q16 -4 40.5 -8.5t47.5 -4.5q33 0 61.5 9.5t56 36t54 74.5t51.5 124l14 43l-307 1063h221l146 -555q14 -59 27.5 -123t23.5 -127h4q10 72 26.5 155t30.5 150l119 500h219l-272 -985q-72 -268 -191.5 -400.5t-322.5 -132.5q-16 0 -33.5 1t-40.5 5z M322 1253l270 258l121 -125l-299 -227z" />
<glyph unicode="&#xfe;" horiz-adv-x="917" d="M117 -492v1983h202v-430q0 -59 -3 -115.5t-11 -114.5l2 -2q31 96 96.5 152.5t163.5 56.5q141 0 218 -120.5t77 -364.5q0 -274 -111.5 -418.5t-334.5 -144.5q-27 0 -48.5 2t-48.5 8v-492h-202zM319 176q45 -23 115 -22q51 0 92 20.5t69 65.5t42 118t14 177 q0 158 -33.5 242.5t-105.5 84.5q-45 0 -81 -35.5t-60.5 -91t-38 -125t-13.5 -137.5v-297z" />
<glyph unicode="&#xff;" horiz-adv-x="823" d="M-41 -494l25 175q16 -4 40.5 -8.5t47.5 -4.5q33 0 61.5 9.5t56 36t54 74.5t51.5 124l14 43l-307 1063h221l146 -555q14 -59 27.5 -123t23.5 -127h4q10 72 26.5 155t30.5 150l119 500h219l-272 -985q-72 -268 -191.5 -400.5t-322.5 -132.5q-16 0 -33.5 1t-40.5 5z M127 1317q0 47 33 81t80 34t80.5 -34t33.5 -81t-33.5 -81t-80.5 -34t-80 34t-33 81zM457 1317q0 47 33.5 81t80.5 34t80 -34t33 -81t-34 -81t-81 -34t-79.5 34t-32.5 81z" />
<glyph unicode="&#x152;" horiz-adv-x="1378" d="M59 680q0 156 33 287t99.5 226t167 148.5t235.5 53.5q82 0 162 -13h534v-176h-391v-407h369v-170h-369v-451h393v-178h-549q-47 -6 -93 -10t-93 -4q-127 0 -221 48t-155.5 137t-91.5 218t-30 291zM276 696q0 -526 297 -526q55 0 123 25v997q-59 20 -118 20 q-145 0 -223.5 -132t-78.5 -384z" />
<glyph unicode="&#x153;" horiz-adv-x="1421" d="M57 500q0 115 26 213t77 170.5t126.5 113.5t176.5 41q199 0 282 -170q37 72 102.5 121t170.5 49q88 0 151.5 -32.5t105.5 -90t62.5 -136.5t20.5 -173v-51.5t-4 -60.5h-514v-27q0 -174 57 -250t168 -76q68 0 121 16.5t110 45.5l52 -150q-72 -35 -151 -54t-165 -19 q-109 0 -185.5 42t-117.5 134q-41 -82 -110.5 -129t-176.5 -47q-201 0 -293 136t-92 384zM264 520q0 -188 47 -280.5t150 -92.5q86 0 132 88.5t46 264.5q0 190 -46 280t-147 90q-88 0 -135 -87t-47 -263zM844 639h313q0 117 -36 180.5t-111 63.5q-78 0 -118 -66.5 t-48 -177.5z" />
<glyph unicode="&#x178;" horiz-adv-x="905" d="M4 1382h225l160 -452q23 -57 41.5 -117.5t28.5 -105.5h2q14 53 34.5 115.5t36.5 109.5l154 450h217l-346 -897v-485h-205v483zM170 1585q0 45 30.5 76t75.5 31t76 -31t31 -76t-30.5 -75.5t-76.5 -30.5q-45 0 -75.5 30.5t-30.5 75.5zM518 1585q0 45 31 76t76 31t76.5 -31 t31.5 -76t-31.5 -75.5t-76.5 -30.5t-76 30.5t-31 75.5z" />
<glyph unicode="&#x2c6;" horiz-adv-x="638" d="M59 1251l258 256l263 -254l-84 -94l-181 160l-172 -160z" />
<glyph unicode="&#x2dc;" horiz-adv-x="811" d="M90 1268q31 70 80 118t133 48q45 0 76 -13.5t53.5 -31t43 -30.5t46.5 -13q37 0 61.5 21.5t47.5 66.5l100 -68q-29 -72 -79 -119t-132 -47q-49 0 -79.5 13.5t-53 31t-42 30.5t-46.5 13q-35 0 -60.5 -22.5t-48.5 -65.5z" />
<glyph unicode="&#x2000;" horiz-adv-x="853" />
<glyph unicode="&#x2001;" horiz-adv-x="1706" />
<glyph unicode="&#x2002;" horiz-adv-x="853" />
<glyph unicode="&#x2003;" horiz-adv-x="1706" />
<glyph unicode="&#x2004;" horiz-adv-x="568" />
<glyph unicode="&#x2005;" horiz-adv-x="426" />
<glyph unicode="&#x2006;" horiz-adv-x="284" />
<glyph unicode="&#x2007;" horiz-adv-x="284" />
<glyph unicode="&#x2008;" horiz-adv-x="213" />
<glyph unicode="&#x2009;" horiz-adv-x="341" />
<glyph unicode="&#x200a;" horiz-adv-x="94" />
<glyph unicode="&#x2010;" horiz-adv-x="442" d="M49 539v168h367v-168h-367z" />
<glyph unicode="&#x2011;" horiz-adv-x="442" d="M49 539v168h367v-168h-367z" />
<glyph unicode="&#x2012;" horiz-adv-x="442" d="M49 539v168h367v-168h-367z" />
<glyph unicode="&#x2013;" d="M0 532v179h901v-179h-901z" />
<glyph unicode="&#x2014;" horiz-adv-x="1638" d="M145 532v179h1348v-179h-1348z" />
<glyph unicode="&#x2018;" horiz-adv-x="415" d="M77 1126.5q1 79.5 49 184t165 219.5l86 -76q-88 -109 -99.5 -181.5t27.5 -121.5q23 -29 27 -63.5t-9.5 -64.5t-42 -50.5t-71.5 -20.5q-57 0 -95 47.5t-37 127z" />
<glyph unicode="&#x2019;" horiz-adv-x="415" d="M59 1018q86 111 97.5 181.5t-27.5 119.5q-25 29 -28 63.5t10.5 65.5t42 51.5t71.5 20.5q57 0 95 -48.5t38 -128t-49 -184t-164 -217.5z" />
<glyph unicode="&#x201a;" horiz-adv-x="415" d="M39 -248q86 109 97 180.5t-27 120.5q-25 29 -28 64t10 65.5t43 51t73 20.5q57 0 96 -48t38 -128t-50 -184.5t-166 -217.5z" />
<glyph unicode="&#x201c;" horiz-adv-x="733" d="M77 1150q1 75 46 173t149 207l82 -66q-82 -109 -91 -177t26 -116q20 -27 23 -59.5t-9 -60t-38.5 -47t-65.5 -19.5q-53 0 -88 45t-34 120zM419 1150q1 75 44 172t147 204l82 -66q-78 -104 -89 -173.5t24 -115.5q20 -27 24 -59.5t-8 -60t-38.5 -47t-65.5 -19.5 q-53 0 -87 45t-33 120z" />
<glyph unicode="&#x201d;" horiz-adv-x="733" d="M61 1047q78 104 89.5 172.5t-23.5 113.5q-23 27 -26 59.5t9.5 61.5t39 47.5t65.5 18.5q51 0 86 -45t34 -120t-44 -172.5t-148 -201.5zM399 1042q82 106 91.5 175t-25.5 116q-20 27 -23.5 59.5t9 61.5t39 47.5t65.5 18.5q53 0 88 -45t34 -120t-46 -173.5t-150 -204.5z" />
<glyph unicode="&#x201e;" horiz-adv-x="733" d="M41 -231q78 104 89 172.5t-24 113.5q-23 27 -25.5 59.5t9.5 61.5t39 47.5t66 18.5q51 0 85.5 -45t33.5 -120t-44 -172.5t-147 -201.5zM377 -236q80 109 90 177.5t-25 113.5q-20 27 -23 59.5t9 61.5t39 47.5t65 18.5q53 0 88 -45t34 -120t-46 -173.5t-149 -204.5z" />
<glyph unicode="&#x2022;" horiz-adv-x="708" d="M102 623q0 51 19.5 97t54.5 81t80 54t98 19q51 0 97.5 -19t81 -54t54 -81t19.5 -97q0 -53 -19.5 -98.5t-54 -80t-80.5 -54t-98 -19.5q-53 0 -98 19.5t-80 54t-54.5 79.5t-19.5 99z" />
<glyph unicode="&#x2026;" horiz-adv-x="1157" d="M76 115q0 53 39 92t92 39t92 -39t39 -92t-39 -92t-92 -39t-92 38.5t-39 92.5zM449 115q0 53 38 92t93 39q53 0 92 -39t39 -92t-39 -92t-92 -39q-55 0 -93 38.5t-38 92.5zM819 115q0 53 39 92t92 39q55 0 93 -39t38 -92t-37.5 -92t-93.5 -39q-53 0 -92 38.5t-39 92.5z" />
<glyph unicode="&#x202f;" horiz-adv-x="341" />
<glyph unicode="&#x2039;" horiz-adv-x="577" d="M82 582l217 422l156 -76l-174 -346l178 -346l-160 -74z" />
<glyph unicode="&#x203a;" horiz-adv-x="577" d="M119 926l160 75l217 -419l-217 -422l-156 76l174 346z" />
<glyph unicode="&#x205f;" horiz-adv-x="426" />
<glyph unicode="&#x20ac;" d="M2 461v143h98q-2 14 -2 27.5v27.5q0 29 1 54.5t3 52.5h-100v143h119q16 109 52 199t92.5 154.5t133 100.5t179.5 36q70 0 133 -19.5t108 -50.5l-67 -166q-72 55 -177 56q-111 0 -167 -86t-76 -224h315v-143h-332v-82v-80h332v-143h-315q20 -143 76.5 -220t162.5 -77 q113 0 195 65l63 -161q-59 -41 -130.5 -63.5t-163.5 -22.5q-201 0 -301.5 127t-122.5 352h-109z" />
<glyph unicode="&#x2122;" horiz-adv-x="1163" d="M61 1251v131h369v-131h-106v-444h-152v444h-111zM446 807l66 575h182l60 -297l16 -102l14 94l66 305h186l68 -575h-146l-30 311l-10 103l-15 -88l-63 -326h-150l-61 328l-17 86l-4 -76l-33 -338h-129z" />
<glyph unicode="&#x25fc;" horiz-adv-x="1013" d="M0 0v1014h1014v-1014h-1014z" />
</font>
</defs>
</svg>
